<?xml version="1.0" encoding="UTF-8" standalone="no"?>
<!-- Created with Inkscape (http://www.inkscape.org/) -->

<svg
   width="820"
   height="462"
   viewBox="0 0 820 462"
   version="1.1"
   id="svg1"
   xmlns:inkscape="http://www.inkscape.org/namespaces/inkscape"
   xmlns:sodipodi="http://sodipodi.sourceforge.net/DTD/sodipodi-0.dtd"
   xmlns="http://www.w3.org/2000/svg"
   xmlns:svg="http://www.w3.org/2000/svg">
  <sodipodi:namedview
     id="namedview1"
     pagecolor="#505050"
     bordercolor="#eeeeee"
     borderopacity="1"
     inkscape:showpageshadow="0"
     inkscape:pageopacity="0"
     inkscape:pagecheckerboard="0"
     inkscape:deskcolor="#505050"
     inkscape:document-units="px" />
  <defs
     id="defs1" />
  <g
     inkscape:label="Layer 1"
     inkscape:groupmode="layer"
     id="layer1">
    <path
       style="font-weight:900;font-size:224.655px;line-height:0;font-family:Giphurs;-inkscape-font-specification:'Giphurs Heavy';letter-spacing:0px;fill:#fafafa;stroke-width:11.3077;stroke-linejoin:round;paint-order:stroke markers fill"
       d="M 98.059296,148.29009 H 59.885498 v 96.53144 c 0,39.49014 25.449199,68.88835 71.521022,68.88835 46.07183,0 71.52103,-29.39821 71.52103,-68.88835 v -96.53144 h -38.1738 v 96.53144 c 0,23.80378 -15.02819,35.10235 -33.34723,35.10235 -18.31903,0 -33.347224,-11.29857 -33.347224,-35.10235 z M 296.82631,310.63843 h 36.19929 v -62.74544 c 0,-35.10234 -17.44147,-54.40863 -46.5106,-54.40863 -16.01544,0 -25.99767,9.10467 -30.71455,16.23483 V 196.55581 H 220.9175 v 114.08262 h 36.19929 v -62.74544 c 0,-14.04094 4.71687,-22.26805 19.85476,-22.26805 15.13789,0 19.85476,8.22711 19.85476,22.26805 z m 105.41673,-41.02587 -20.95171,-73.05675 h -38.61258 l 39.05136,114.08262 h 39.59983 L 460.3813,196.55581 h -38.61258 z m 120.22555,44.09732 c 15.57666,0 27.75279,-4.2781 36.08959,-11.29856 6.58169,5.59443 16.12514,10.31131 28.74005,11.29856 l 8.11741,-29.17882 c -7.67863,0 -11.51795,-5.92352 -11.51795,-12.50521 v -29.94669 c 0,-38.39319 -24.79103,-49.58206 -56.27345,-49.58206 -30.82424,0 -51.22748,12.7246 -51.22748,12.7246 l 16.45422,27.31401 c 0,0 10.7501,-7.89802 34.77326,-7.89802 15.02819,0 20.07416,5.26535 20.07416,14.15063 -5.81383,-2.0842 -12.50521,-3.07146 -20.07416,-3.07146 -32.68906,0 -56.38314,16.12514 -56.38314,38.06411 0,21.93896 18.64812,39.92891 51.22749,39.92891 z m 25.22981,-40.80647 c 0,5.81382 -8.22712,8.66589 -20.07416,8.66589 -12.50521,0 -20.18385,-2.85207 -20.18385,-8.66589 0,-5.92352 7.67864,-8.66589 20.18385,-8.66589 12.39552,0 20.07416,2.74237 20.07416,8.66589 z m 59.45459,-75.03126 h -7.89803 v 30.82424 h 26.87523 v 36.1993 c 0,29.28851 14.8088,48.81419 51.44687,48.81419 12.06644,0 20.95172,-2.74237 26.87524,-5.26535 l -9.10467,-32.57936 c -3.40054,3.29084 -11.18888,5.70413 -17.44148,5.70413 -10.09192,0 -15.57667,-5.59444 -15.57667,-16.67361 v -36.1993 h 33.01815 v -32.14058 h -33.01815 v -30.71455 h -33.786 v 11.07918 c 0,19.75492 -2.02219,20.95171 -21.39049,20.95171 z M 765.3329,313.70988 c 15.57667,0 27.75279,-4.2781 36.0896,-11.29856 6.58169,5.59443 16.12514,10.31131 28.74005,11.29856 l 8.11741,-29.17882 c -7.67864,0 -11.51795,-5.92352 -11.51795,-12.50521 v -29.94669 c 0,-38.39319 -24.79103,-49.58206 -56.27345,-49.58206 -30.82424,0 -51.22748,12.7246 -51.22748,12.7246 l 16.45422,27.31401 c 0,0 10.75009,-7.89802 34.77326,-7.89802 15.02819,0 20.07415,5.26535 20.07415,14.15063 -5.81382,-2.0842 -12.50521,-3.07146 -20.07415,-3.07146 -32.68906,0 -56.38314,16.12514 -56.38314,38.06411 0,21.93896 18.64812,39.92891 51.22748,39.92891 z m 25.22981,-40.80647 c 0,5.81382 -8.22711,8.66589 -20.07415,8.66589 -12.50521,0 -20.18385,-2.85207 -20.18385,-8.66589 0,-5.92352 7.67864,-8.66589 20.18385,-8.66589 12.39552,0 20.07415,2.74237 20.07415,8.66589 z"
       id="text1"
       transform="skewX(-8.7779439)"
       aria-label="Unvata"
       sodipodi:nodetypes="ccsssccssscccsscccccssscccccccccscccsssccscssssssssscccssccssccccccssscccsssccscssssssss" />
  </g>
</svg>
