<?xml version="1.0" encoding="UTF-8" standalone="no"?>
<!-- Created with Inkscape (http://www.inkscape.org/) -->

<svg
   width="1920"
   height="1080"
   viewBox="0 0 1920 1080"
   version="1.1"
   id="svg1"
   inkscape:export-filename="UnvataLogo.png"
   inkscape:export-xdpi="96"
   inkscape:export-ydpi="96"
   inkscape:version="1.3.2 (091e20e, 2023-11-25, custom)"
   xmlns:inkscape="http://www.inkscape.org/namespaces/inkscape"
   xmlns:sodipodi="http://sodipodi.sourceforge.net/DTD/sodipodi-0.dtd"
   xmlns="http://www.w3.org/2000/svg"
   xmlns:svg="http://www.w3.org/2000/svg">
  <sodipodi:namedview
     id="namedview1"
     pagecolor="#505050"
     bordercolor="#eeeeee"
     borderopacity="1"
     inkscape:showpageshadow="0"
     inkscape:pageopacity="0"
     inkscape:pagecheckerboard="0"
     inkscape:deskcolor="#505050"
     inkscape:document-units="px"
     showgrid="false"
     inkscape:zoom="1.2927083"
     inkscape:cx="567.41338"
     inkscape:cy="324.51249"
     inkscape:window-width="1920"
     inkscape:window-height="1057"
     inkscape:window-x="-8"
     inkscape:window-y="-8"
     inkscape:window-maximized="1"
     inkscape:current-layer="layer1">
    <inkscape:grid
       id="grid1"
       units="px"
       originx="0"
       originy="0"
       spacingx="7"
       spacingy="7"
       empcolor="#0099e5"
       empopacity="0.30196078"
       color="#0099e5"
       opacity="0.14901961"
       empspacing="5"
       dotted="false"
       gridanglex="30"
       gridanglez="30"
       visible="false" />
  </sodipodi:namedview>
  <defs
     id="defs1" />
  <g
     inkscape:label="Layer 1"
     inkscape:groupmode="layer"
     id="layer1">
    <g
       id="g16"
       transform="matrix(1.8888844,0,0,1.8888844,-97.995758,-157.4115)"
       style="opacity:1;fill:#ffffff;fill-opacity:1;stroke:none;stroke-width:4.07066;stroke-dasharray:none;paint-order:normal">
      <path
         style="opacity:1;fill:#ffffff;fill-opacity:1;fill-rule:nonzero;stroke:none;stroke-width:4.07066;stroke-linecap:butt;stroke-linejoin:miter;stroke-dasharray:none;stroke-opacity:1;paint-order:normal"
         d="M 140,315 V 420 L 87.461114,402.27231 87.307774,297.14523 Z"
         id="path1"
         sodipodi:nodetypes="ccccc" />
      <path
         style="opacity:1;fill:#ffffff;fill-opacity:1;fill-rule:nonzero;stroke:none;stroke-width:4.07066;stroke-linecap:butt;stroke-linejoin:miter;stroke-dasharray:none;stroke-opacity:1;paint-order:normal"
         d="M 245,472.41873 H 349.86325 L 297.28198,420 297.55548,266 H 245 l -52.45727,49 H 245 Z"
         id="path2"
         sodipodi:nodetypes="cccccccc" />
      <path
         style="opacity:1;fill:#ffffff;fill-opacity:1;fill-rule:nonzero;stroke:none;stroke-width:4.07066;stroke-linecap:butt;stroke-linejoin:miter;stroke-dasharray:none;stroke-opacity:1;paint-order:normal"
         d="M 371.04835,472.41873 434,472.42166 402.58934,434 l -0.547,-84 h -35.00777 l -34.73427,35 h 35.00777 l 0.65958,87.41873 z"
         id="path3"
         sodipodi:nodetypes="ccccccccc" />
      <path
         style="opacity:1;fill:#ffffff;fill-opacity:1;fill-rule:nonzero;stroke:none;stroke-width:4.07066;stroke-linecap:butt;stroke-linejoin:miter;stroke-dasharray:none;stroke-opacity:1;paint-order:normal"
         d="m 455,385 h -52.16358 l 34.61725,-35 H 455 l 35,35 v 87.42166 h -35 z"
         id="path4"
         sodipodi:nodetypes="cccccccc" />
      <path
         style="opacity:1;fill:#ffffff;fill-opacity:1;fill-rule:nonzero;stroke:none;stroke-width:4.07066;stroke-linecap:butt;stroke-linejoin:miter;stroke-dasharray:none;stroke-opacity:1;paint-order:normal"
         d="m 507.46173,350 v 52.44964 L 577.63,472.35035 577.66318,420 Z"
         id="path5"
         sodipodi:nodetypes="ccccc" />
      <path
         style="opacity:1;fill:#ffffff;fill-opacity:1;fill-rule:nonzero;stroke:none;stroke-width:4.07066;stroke-linecap:butt;stroke-linejoin:miter;stroke-dasharray:none;stroke-opacity:1;paint-order:normal"
         d="m 647.77738,350 -70.1142,70 -0.27111,-70 z"
         id="path6"
         sodipodi:nodetypes="cccc" />
      <path
         style="opacity:1;fill:#ffffff;fill-opacity:1;fill-rule:nonzero;stroke:none;stroke-width:4.07066;stroke-linecap:butt;stroke-linejoin:miter;stroke-dasharray:none;stroke-opacity:1;paint-order:normal"
         d="M 612.08895,472.35035 V 402.31584 L 665,350 h 52.38576 L 665,402.58934 h 52.38576 l -69.87879,69.82939 z"
         id="path7"
         sodipodi:nodetypes="cccccccc" />
      <path
         style="opacity:1;fill:#ffffff;fill-opacity:1;fill-rule:nonzero;stroke:none;stroke-width:4.07066;stroke-linecap:butt;stroke-linejoin:miter;stroke-dasharray:none;stroke-opacity:1;paint-order:normal"
         d="m 752.53027,472.41873 h -70.01553 l 34.59752,-35.09512 0.2735,-87.32361 35.00776,7 z"
         id="path8"
         sodipodi:nodetypes="cccccc" />
      <path
         style="opacity:1;fill:#ffffff;fill-opacity:1;fill-rule:nonzero;stroke:none;stroke-width:4.07066;stroke-linecap:butt;stroke-linejoin:miter;stroke-dasharray:none;stroke-opacity:1;paint-order:normal"
         d="M 87.461114,420 H 245 L 192.54273,472.41873 140,472.28198 Z"
         id="path9"
         sodipodi:nodetypes="ccccc" />
      <path
         style="opacity:1;fill:#ffffff;fill-opacity:1;fill-rule:nonzero;stroke:none;stroke-width:4.07066;stroke-linecap:butt;stroke-linejoin:miter;stroke-dasharray:none;stroke-opacity:1;paint-order:normal"
         d="m 770,437.32361 35.06837,35.09512 H 875 v -35.23187 l -70,0.13675 V 385 h 52.55358 L 875,350 H 805 V 262.14802 L 770,280 Z"
         id="path10"
         sodipodi:nodetypes="cccccccccccc" />
      <path
         style="opacity:1;fill:#ffffff;fill-opacity:1;fill-rule:nonzero;stroke:none;stroke-width:4.07066;stroke-linecap:butt;stroke-linejoin:miter;stroke-dasharray:none;stroke-opacity:1;paint-order:normal"
         d="m 892.19115,472.41873 35.47467,-0.0344 69.64534,-70.47878 L 945,402.04234 997.4479,350 H 945 l -52.8489,52.31584 z"
         id="path11"
         sodipodi:nodetypes="cccccccc" />
      <path
         style="opacity:1;fill:#ffffff;fill-opacity:1;fill-rule:nonzero;stroke:none;stroke-width:4.07066;stroke-linecap:butt;stroke-linejoin:miter;stroke-dasharray:none;stroke-opacity:1;paint-order:normal"
         d="m 997.4479,350 34.871,17.58157 -0.04,104.83716 h -69.91887 l 35.08787,-35.09512 z"
         id="path12"
         sodipodi:nodetypes="cccccc" />
      <path
         id="rect12"
         style="opacity:1;fill:#ffffff;fill-opacity:1;fill-rule:nonzero;stroke:none;stroke-width:4.07066;stroke-linecap:butt;stroke-linejoin:miter;stroke-dasharray:none;stroke-opacity:1;paint-order:normal"
         d="m 192.53424,322.02136 a 45.592049,45.592049 0 0 1 -45.47017,45.47017 v 0.0119 a 45.592046,45.385408 0 0 1 45.47863,45.38218 45.385408,45.385412 0 0 1 45.38559,-45.3856 45.385412,45.592049 0 0 1 -45.37712,-45.47863 z M 237.92829,367.5 a 45.385408,45.385412 0 0 1 0.0931,0.002 v -0.009 a 45.385412,45.592049 0 0 1 -0.0931,0.007 z m -45.38559,45.38558 a 45.592046,45.385408 0 0 1 -0.007,0.0931 h 0.0135 a 45.385408,45.385412 0 0 1 -0.007,-0.0931 z" />
    </g>
  </g>
</svg>
