<?xml version="1.0" encoding="UTF-8" standalone="no"?>
<!-- Created with Inkscape (http://www.inkscape.org/) -->

<svg
   width="210mm"
   height="210mm"
   viewBox="0 0 210 210"
   version="1.1"
   id="svg1"
   xml:space="preserve"
   xmlns:inkscape="http://www.inkscape.org/namespaces/inkscape"
   xmlns:sodipodi="http://sodipodi.sourceforge.net/DTD/sodipodi-0.dtd"
   xmlns="http://www.w3.org/2000/svg"
   xmlns:svg="http://www.w3.org/2000/svg"><sodipodi:namedview
     id="namedview1"
     pagecolor="#505050"
     bordercolor="#eeeeee"
     borderopacity="1"
     inkscape:showpageshadow="0"
     inkscape:pageopacity="0"
     inkscape:pagecheckerboard="0"
     inkscape:deskcolor="#505050"
     inkscape:document-units="mm"
     showguides="true"><sodipodi:guide
       position="-152.95712,236.58194"
       orientation="1,0"
       id="guide1"
       inkscape:locked="false" /></sodipodi:namedview><defs
     id="defs1" /><g
     inkscape:label="Layer 1"
     inkscape:groupmode="layer"
     id="layer1"><rect
       style="opacity:1;fill:#ffffff;fill-opacity:1;fill-rule:nonzero;stroke:none;stroke-width:2.55693;stroke-linecap:butt;stroke-linejoin:round;stroke-dasharray:none;stroke-opacity:1;paint-order:stroke markers fill"
       id="rect1"
       width="210"
       height="210"
       x="0"
       y="0"
       rx="30"
       ry="30" /><g
       id="g16"
       transform="matrix(0.31164393,0,0,0.31164393,-75.713018,-10.064778)"
       style="mix-blend-mode:normal;fill:#42ac9e;fill-opacity:1;fill-rule:nonzero;stroke:none;stroke-width:4.07066;stroke-dasharray:none;stroke-opacity:1;paint-order:normal"><path
         style="opacity:1;fill:#42ac9e;fill-opacity:1;fill-rule:nonzero;stroke:none;stroke-width:45.4949;stroke-linecap:butt;stroke-linejoin:miter;stroke-dasharray:none;stroke-opacity:1;paint-order:stroke markers fill"
         d="M 444.33208,252.17177 V 478.8841 L 330.89195,440.60709 330.56087,213.62037 Z"
         id="path1"
         sodipodi:nodetypes="ccccc" /><path
         style="opacity:1;fill:#42ac9e;fill-opacity:1;fill-rule:nonzero;stroke:none;stroke-width:45.4949;stroke-linecap:butt;stroke-linejoin:miter;stroke-dasharray:none;stroke-opacity:1;paint-order:stroke markers fill"
         d="M 671.04441,592.06479 H 897.46147 L 783.92983,478.8841 784.52036,146.37268 H 671.04441 L 557.7805,252.17177 h 113.26391 z"
         id="path2"
         sodipodi:nodetypes="cccccccc" /><path
         style="opacity:1;fill:#42ac9e;fill-opacity:1;fill-rule:nonzero;stroke:none;stroke-width:45.4949;stroke-linecap:butt;stroke-linejoin:miter;stroke-dasharray:none;stroke-opacity:1;paint-order:stroke markers fill"
         d="M 330.89195,478.8841 H 671.04441 L 557.7805,592.06479 444.33208,591.76952 Z"
         id="path9"
         sodipodi:nodetypes="ccccc" /><path
         id="rect12"
         style="opacity:1;fill:#42ac9e;fill-opacity:1;fill-rule:nonzero;stroke:none;stroke-width:45.4949;stroke-linecap:butt;stroke-linejoin:miter;stroke-dasharray:none;stroke-opacity:1;paint-order:stroke markers fill"
         d="m 557.76217,267.33204 a 98.440759,98.440759 0 0 1 -98.1776,98.1776 v 0.0257 a 98.440752,97.994587 0 0 1 98.19587,97.98762 97.994587,97.994595 0 0 1 97.99498,-97.99501 97.994595,98.440759 0 0 1 -97.97669,-98.19586 z m 98.01325,98.19589 a 97.994587,97.994595 0 0 1 0.20102,0.004 v -0.0194 a 97.994595,98.440759 0 0 1 -0.20102,0.0151 z m -97.99498,97.99496 a 98.440752,97.994587 0 0 1 -0.0151,0.20102 h 0.0292 a 97.994587,97.994595 0 0 1 -0.0151,-0.20102 z" /></g></g></svg>
